<svg xmlns="http://www.w3.org/2000/svg" viewBox="0 0 140 100" role="img" aria-labelledby="title desc">
    <title id="title">AI Reminder logo</title>
    <desc id="desc">A glowing AI chip with a reminder bell and notification pulse.</desc>
    <defs>
        <linearGradient id="bg" x1="8" y1="10" x2="132" y2="92" gradientUnits="userSpaceOnUse">
            <stop stop-color="#111827"/>
            <stop offset="0.48" stop-color="#0f766e"/>
            <stop offset="1" stop-color="#f59e0b"/>
        </linearGradient>
        <linearGradient id="chip" x1="45" y1="24" x2="95" y2="76" gradientUnits="userSpaceOnUse">
            <stop stop-color="#ecfeff"/>
            <stop offset="0.54" stop-color="#67e8f9"/>
            <stop offset="1" stop-color="#a78bfa"/>
        </linearGradient>
        <radialGradient id="glow" cx="50%" cy="45%" r="58%">
            <stop stop-color="#ffffff" stop-opacity="0.36"/>
            <stop offset="1" stop-color="#ffffff" stop-opacity="0"/>
        </radialGradient>
    </defs>
    <rect width="140" height="100" rx="14" fill="#0f162b"/>
    <rect x="4" y="4" width="132" height="92" rx="12" fill="url(#bg)"/>
    <rect x="4" y="4" width="132" height="92" rx="12" fill="url(#glow)"/>
    <path d="M39 28h62M39 72h62M28 39v22M112 39v22" fill="none" stroke="#dff8ff" stroke-width="3" stroke-linecap="round" opacity="0.45"/>
    <rect x="43" y="25" width="54" height="50" rx="15" fill="url(#chip)" stroke="#ffffff" stroke-width="3"/>
    <path d="M55 54c2.2-7.8 7.3-12.6 15-12.6S82.9 46.2 85 54" fill="none" stroke="#0f172a" stroke-width="4" stroke-linecap="round"/>
    <circle cx="62" cy="40" r="4" fill="#0f172a"/>
    <circle cx="78" cy="40" r="4" fill="#0f172a"/>
    <path d="M56 30v-8M70 30v-8M84 30v-8M56 78v-8M70 78v-8M84 78v-8M40 39h-8M40 50h-8M40 61h-8M108 39h-8M108 50h-8M108 61h-8" fill="none" stroke="#dff8ff" stroke-width="3" stroke-linecap="round"/>
    <g transform="translate(84 15)">
        <path d="M14 9c-7.2 0-12 5.4-12 12.5v6.7L0 33h28l-2-4.8v-6.7C26 14.4 21.2 9 14 9Z" fill="#fef3c7" stroke="#78350f" stroke-width="2.4" stroke-linejoin="round"/>
        <path d="M10.5 34.5a4 4 0 0 0 7 0" fill="none" stroke="#78350f" stroke-width="2.4" stroke-linecap="round"/>
        <circle cx="22.5" cy="7.5" r="6.5" fill="#ef4444" stroke="#fee2e2" stroke-width="2"/>
        <path d="M22.5 5.2v4.6M20.2 7.5h4.6" stroke="#ffffff" stroke-width="1.9" stroke-linecap="round"/>
    </g>
    <path d="M24 23l4 4 6-8M19 78c6-5 11-5 17 0M106 78c5-4 10-4 15 0" fill="none" stroke="#ffffff" stroke-width="3" stroke-linecap="round" stroke-linejoin="round" opacity="0.85"/>
</svg>
