<svg xmlns="http://www.w3.org/2000/svg" viewBox="0 0 140 100" role="img" aria-labelledby="title desc">
    <title id="title">Network Authentication logo</title>
    <desc id="desc">A secure shield with connected network nodes and a lock badge.</desc>
    <defs>
        <linearGradient id="bg" x1="8" y1="10" x2="132" y2="92" gradientUnits="userSpaceOnUse">
            <stop stop-color="#130f26"/>
            <stop offset="0.46" stop-color="#7e22ce"/>
            <stop offset="1" stop-color="#f59e0b"/>
        </linearGradient>
        <linearGradient id="shield" x1="49" y1="16" x2="89" y2="80" gradientUnits="userSpaceOnUse">
            <stop stop-color="#eff6ff"/>
            <stop offset="0.55" stop-color="#93c5fd"/>
            <stop offset="1" stop-color="#c084fc"/>
        </linearGradient>
        <radialGradient id="glow" cx="50%" cy="42%" r="60%">
            <stop stop-color="#ffffff" stop-opacity="0.35"/>
            <stop offset="1" stop-color="#ffffff" stop-opacity="0"/>
        </radialGradient>
        <filter id="softShadow" x="-30%" y="-30%" width="160%" height="160%">
            <feDropShadow dx="0" dy="8" stdDeviation="5" flood-color="#020617" flood-opacity="0.35"/>
        </filter>
    </defs>
    <rect width="140" height="100" rx="14" fill="#0f1020"/>
    <rect x="4" y="4" width="132" height="92" rx="12" fill="url(#bg)"/>
    <rect x="4" y="4" width="132" height="92" rx="12" fill="url(#glow)"/>
    <path d="M30 27l28 13M30 73l28-13M110 27L82 40M110 73L82 60M22 50h27M91 50h27" fill="none" stroke="#f8fafc" stroke-width="3" stroke-linecap="round" opacity="0.38"/>
    <g fill="#0f172a" stroke="#f8fafc" stroke-width="3">
        <circle cx="30" cy="27" r="8"/>
        <circle cx="30" cy="73" r="8"/>
        <circle cx="112" cy="28" r="8"/>
        <circle cx="112" cy="72" r="8"/>
        <circle cx="20" cy="50" r="7"/>
        <circle cx="120" cy="50" r="7"/>
    </g>
    <g filter="url(#softShadow)">
        <path d="M70 14l31 11v24c0 18.5-12.5 30.8-31 38-18.5-7.2-31-19.5-31-38V25l31-11Z" fill="url(#shield)" stroke="#ffffff" stroke-width="3"/>
        <path d="M56 52h28v19H56z" fill="#111827" opacity="0.9" rx="4"/>
        <path d="M61 52v-7.5c0-5.4 3.9-9.5 9-9.5s9 4.1 9 9.5V52" fill="none" stroke="#111827" stroke-width="5" stroke-linecap="round"/>
        <path d="M65 61l4 4 8-9" fill="none" stroke="#22d3ee" stroke-width="4" stroke-linecap="round" stroke-linejoin="round"/>
    </g>
    <path d="M51 29c5-3.5 11.1-5.2 18.5-5.2S83.2 25.6 89 29M54 77c4.4 2.8 9.6 5 16 6.8 6.4-1.8 11.6-4 16-6.8" fill="none" stroke="#ffffff" stroke-width="2.5" stroke-linecap="round" opacity="0.68"/>
    <circle cx="30" cy="27" r="3" fill="#22d3ee"/>
    <circle cx="30" cy="73" r="3" fill="#fbbf24"/>
    <circle cx="112" cy="28" r="3" fill="#f0abfc"/>
    <circle cx="112" cy="72" r="3" fill="#34d399"/>
    <circle cx="20" cy="50" r="2.7" fill="#ffffff"/>
    <circle cx="120" cy="50" r="2.7" fill="#ffffff"/>
</svg>
